<?xml version="1.0" encoding="UTF-8"?>
<svg width="20px" height="19px" viewBox="0 0 20 19" version="1.1" xmlns="http://www.w3.org/2000/svg" xmlns:xlink="http://www.w3.org/1999/xlink">
    <title>jobs</title>
    <g id="Page-1" stroke="none" stroke-width="1" fill="none" fill-rule="evenodd" fill-opacity="0.9">
        <g id="Artboard" transform="translate(-284.000000, -512.000000)" fill="#FFFFFF" fill-rule="nonzero">
            <g id="Group" transform="translate(65.000000, 367.000000)">
                <g id="Group-2" transform="translate(209.000000, 135.000000)">
                    <g id="Job">
                        <path d="M18,10 L22,10 C23.1045695,10 24,10.8954305 24,12 L24,14 L28,14 C29.1045695,14 30,14.8954305 30,16 L30,27 C30,28.1045695 29.1045695,29 28,29 L12,29 C10.89,29 10,28.1 10,27 L10,16 C10,14.89 10.89,14 12,14 L16,14 L16,12 C16,10.89 16.89,10 18,10 M22,14 L22,12 L18,12 L18,14 L22,14 Z" id="jobs"></path>
                    </g>
                </g>
            </g>
        </g>
    </g>
</svg>