<?xml version="1.0" encoding="UTF-8"?>
<svg width="21px" height="20px" viewBox="0 0 21 20" version="1.1" xmlns="http://www.w3.org/2000/svg" xmlns:xlink="http://www.w3.org/1999/xlink">
    <title>mentoring</title>
    <g id="Page-1" stroke="none" stroke-width="1" fill="none" fill-rule="evenodd">
        <g id="Artboard" transform="translate(-329.000000, -512.000000)" fill="#FFFFFF" fill-rule="nonzero">
            <g id="Group" transform="translate(65.000000, 367.000000)">
                <g id="Group-2" transform="translate(209.000000, 135.000000)">
                    <g id="Mentorship" transform="translate(46.000000, 0.000000)">
                        <g id="mentoring" transform="translate(9.000000, 10.000000)">
                            <path d="M19,15 C20.1045695,15 21,14.1045695 21,13 L21,2 C21,0.8954305 20.1045695,0 19,0 L8.46,0 C8.81,0.61 9,1.3 9,2 L19,2 L19,13 L10,13 L10,15 M14,5 L14,7 L8,7 L8,20 L6,20 L6,14 L4,14 L4,20 L2,20 L2,12 L0.5,12 L0.5,7 C0.5,5.8954305 1.3954305,5 2.5,5 L14,5 M7,2 C7,3.1045695 6.1045695,4 5,4 C3.8954305,4 3,3.1045695 3,2 C3,0.8954305 3.8954305,0 5,0 C6.1045695,0 7,0.8954305 7,2 Z" id="Shape"></path>
                        </g>
                    </g>
                </g>
            </g>
        </g>
    </g>
</svg>
