<?xml version="1.0" encoding="UTF-8"?>
<svg width="21px" height="16px" viewBox="0 0 21 16" version="1.1" xmlns="http://www.w3.org/2000/svg" xmlns:xlink="http://www.w3.org/1999/xlink">
    <title>Shape</title>
    <g id="Page-1" stroke="none" stroke-width="1" fill="none" fill-rule="evenodd">
        <g id="Artboard" transform="translate(-286.000000, -572.000000)" fill="#FFFFFF" fill-rule="nonzero">
            <g id="Group" transform="translate(65.000000, 367.000000)">
                <g id="Group-3-Copy" transform="translate(209.000000, 195.000000)">
                    <path d="M12,10 L12,11.5 C12,15.65 14.21,19.28 17.5,21.3 L17.5,26 L32.5,26 L32.5,24 C32.5,21.34 27.17,20 24.5,20 C24.5,20 24.33,20 24.25,20 C19.5,20 15.5,16 15.5,11.5 L15.5,10 M24.5,10 C22.290861,10 20.5,11.790861 20.5,14 C20.5,16.209139 22.290861,18 24.5,18 C26.709139,18 28.5,16.209139 28.5,14 C28.5,11.790861 26.709139,10 24.5,10 Z" id="Shape"></path>
                </g>
            </g>
        </g>
    </g>
</svg>
